# xmcd CD database file
#
# Track frame offsets:
#	150
#	18232
#	38282
#	57417
#	76982
#	92862
#	112412
#	130785
#	151660
#	169495
#	190005
#
# Disc length: 2802 seconds
#
# Revision: 0
# Processed by: cddbd v1.5.2PL0 Copyright (c) Steve Scherf et al.
# Submitted via: CDex 1.51
#
DISCID=840af00b
DTITLE=Mark Winkler - City Lights
DYEAR=1998
DGENRE=Jazz
TTITLE0=Sunny
TTITLE1=City Lights
TTITLE2=Close
TTITLE3=Use Me
TTITLE4=The Laws of Desire
TTITLE5=Time for Love
TTITLE6=Relaxin'
TTITLE7=New York City Blues
TTITLE8=I Keep on Loving You
TTITLE9=Sense of Humor
TTITLE10=Sweet Jazz in the Night
EXTD=YEAR: 1998
EXTT0=
EXTT1=
EXTT2=
EXTT3=
EXTT4=
EXTT5=
EXTT6=
EXTT7=
EXTT8=
EXTT9=
EXTT10=
PLAYORDER=
